<svg width="1000" height="1000" xmlns="http://www.w3.org/2000/svg" xmlns:xlink="http://www.w3.org/1999/xlink" viewBox="0 0 1000 1000">
<defs>
<path id="b" d="M7.692 657.377c0 -13.208 13.131 -130.715 130.054 -130.715 76.908 -5.515 136.662 55.146 211.262 55.146 186.215 -13.954 161.169 -263.792 -1.938 -263.792 -40.769 -0.108 -78.3 17.077 -107.146 45.8L51.831 551.9C20.615 583.015 7.692 622.862 7.692 657.377z"/>
</defs>
<path d="M441.538 308.808c-124.769 -13.308 -250.462 -107.615 -260.385 -307.154 193.615 0 297.154 114.615 307.154 296.231 36.615 -217.846 208.231 -192.308 208.231 -192.308 8.154 123.462 -93.231 198.308 -208.231 204.538 -32.308 -68.077 -225.846 -235.077 -225.846 -235.077a0.538 0.538 0 0 0 -0.846 0.615s186.769 162.692 179.923 233.154"/>
<use x="153.5" transform="rotate(180 500 656.5)" xlink:href="#b"/>
<use x="153.5" transform="rotate(90 500 656.5)" xlink:href="#b"/>
<use x="153.5" transform="rotate(-90 500 656.5)" xlink:href="#b"/>
<use x="153.5" xlink:href="#b"/>
</svg>
