<svg xmlns="http://www.w3.org/2000/svg" width="1386.667" height="1386.667" viewBox="0 0 1040 1040"><path d="M188.9 1.7c-.1 1-.1 2-.1 2.3.2 3.3 1.4 17.4 1.7 20.5.3 2.2.8 6.2 1.1 9 .6 6 1 8.6 1.8 14.5.6 4.3 1 6.1 2.1 12 .3 1.4.8 4.1 1.1 6 .3 1.9 1 5.3 1.6 7.5 1 4.1 1.3 5.5 2.4 11.5.4 1.9 1.1 4.3 1.6 5.3s1 2.8 1.2 4c.1 1.2.5 2.9.8 3.7.3.8 2 6.2 3.8 12 1.7 5.8 3.8 11.9 4.6 13.7.8 1.7 1.4 3.5 1.4 4 .1.4.9 2.6 2 4.8 1.1 2.2 1.9 4.4 2 4.8.1 2.4 14.9 32.2 20.9 42.2 7.8 12.8 19.1 28.7 27.1 38 11.3 13.1 22.6 24.6 33 33.3 4.1 3.5 8.4 7.1 9.5 8.1 1.1.9 4.3 3.3 7 5.2 2.8 1.8 5.2 3.7 5.5 4.1.7.8 21.8 13.9 25.5 15.8 1.7.8 3.2 1.7 3.5 2 2.1 2.1 31 14.7 42.6 18.5 4.4 1.5 8.8 3 9.9 3.5 2.4 1 20.6 5.7 25.5 6.6 4.5.8 6.5 1.2 6.5 1.4 0 .1 1.4.3 3 .5 1.7.2 4.4.6 6 .9 2.4.5 8.8 1.3 13.4 1.8 2.9.3 3.1-.4 2.6-7.5-.4-6.8-3.5-18.4-7-26.5-5.6-12.7-22.1-40.9-24.7-42-.5-.2-.8-.8-.8-1.2 0-1.8-23.3-31.6-36.3-46.7-5.8-6.7-12.2-13.9-13.1-14.9-.6-.6-4.9-5.3-9.6-10.4-20.7-22.6-67.2-67.9-91.2-89.1-2.1-1.8-3.8-3.7-3.8-4.2s1.5.5 3.3 2.1c7.1 6.4 13.4 12 16.6 14.8 1.8 1.6 4.6 4.1 6.2 5.5 1.5 1.4 5.8 5.2 9.4 8.5 7.5 6.6 9.4 8.3 18.1 16.3 3.3 3.1 10.1 9.3 15 13.8 35.7 32.6 88 84.4 111.4 110.4 4.1 4.6 8.6 9.5 10 11 4.9 5.3 8 8.9 8 9.4 0 .3.8 1.3 1.8 2.3 3.5 3.5 18.2 22.1 18.2 23.1 0 .5.4 1.1.9 1.3 1.2.4 13.8 19.8 15.1 23.2 1 2.7 1.1 2.7 7.3 2.2 3.4-.4 8.6-.8 11.5-1.1 2.9-.3 6.5-.7 8-1 1.5-.3 4.4-.8 6.4-1 2-.2 4.5-.6 5.5-.9 1-.3 3.4-.8 5.3-1.1 16.6-2.8 50.9-14.5 64.6-22.1 2.3-1.3 4.4-2 4.8-1.7.3.4.6.2.6-.4 0-.9 3.9-3.2 5-2.9.3 0 1.2-.5 2-1.1 2-1.7 18.2-12.3 18.7-12.3.3 0 1.1-.6 1.8-1.3.8-.6 2-1.7 2.7-2.2 10.9-8.4 28-24.8 34.3-32.9 4.4-5.6 12-16.7 15-21.8C704 211 713 192.3 713 191c0-.6.7-2.4 1.5-3.9.8-1.6 1.7-3.9 1.9-5.2.3-1.3 1.6-6.2 2.9-10.9 1.4-4.7 2.5-8.8 2.5-9.3.1-.4.3-2.2.6-4 1.4-8.5 1.7-10.7 2.3-17.7.9-10 .8-30.9-.1-31.8-1.5-1.4-37.2-.5-46.3 1.3-1.5.3-4.4.8-6.3 1.1-1.9.3-6.2 1.2-9.5 2.1-3.3.8-6.4 1.6-7 1.8-.5.1-1.7.4-2.5.7-16.8 5.5-20.7 7.1-32.5 13-39.7 20.2-74.8 61-92.1 107.1-.9 2.3-2.2 5.5-2.9 7.2-3.1 7.2-10.4 32.1-13 44.5-2.2 10.3-2.2 10-3 14.8-.4 2.4-.9 4.1-1.1 3.9-.3-.3-.7-4.4-.9-9.3-.3-4.9-.7-10.6-1-12.7-.3-2-.7-5.5-1-7.7-1.2-9.9-1.7-13.1-3.1-21.5-1.5-9.3-5.6-28.1-7.5-34.9-.6-2.1-1.2-4.7-1.4-5.8-1.9-9.8-17.7-51.3-21.7-57.1-1.1-1.5-1.6-2.7-1.3-2.7.4 0 .1-1-.7-2.3-.8-1.2-3.2-5.4-5.3-9.2-2.1-3.9-4.6-8.2-5.7-9.7-1-1.4-1.8-3.1-1.8-3.7 0-.6-.4-1.1-1-1.1-.5 0-1-.6-1-1.4 0-.8-.3-1.6-.7-1.8-1.1-.5-5.3-6.6-5.3-7.7 0-.5-.3-1.1-.7-1.3-.5-.2-3.2-3.5-6.1-7.3-9.5-12.5-29.5-33.8-30.7-32.7-.3.3-.5.1-.5-.5s-3.2-3.7-7.1-6.9c-3.9-3.3-7.7-6.4-8.3-6.9-.6-.6-3.1-2.4-5.6-4-2.5-1.7-5.3-3.8-6.4-4.7-1-.9-3.4-2.4-5.2-3.3-1.8-.8-3.9-2.1-4.6-2.8-.7-.6-3.3-2.3-5.8-3.6-2.5-1.3-5.3-3.1-6.2-3.9-1-.8-1.8-1.2-1.8-.8 0 .3-1.9-.6-4.2-2-2.2-1.4-4.6-2.7-5.2-2.8-.6-.2-4.2-1.7-8.1-3.5-11.8-5.5-14.7-6.7-29-11.6-5.3-1.8-17.5-5.3-20-5.8-1.1-.2-2.7-.7-3.5-1-.8-.3-6.2-1.6-12-2.8-13.5-2.7-13.7-2.8-18.5-3.4-2.2-.3-4.7-.8-5.5-1-.8-.2-4.2-.6-7.5-1-3.3-.3-7.8-.8-10-1.1-6.7-.9-13.3-1.3-30.7-1.9C190-.1 189-.1 188.9 1.7zM506.9 333.4c-.2.2-3.1.7-6.4 1-3.3.3-7.8 1-10 1.6-2.2.5-4.1.9-4.2 1-.2 0-.4 0-.5.1-.2 0-1.4.3-2.8.6-2.9.5-4 .8-6 1.5-.8.3-4.6 1.6-8.5 2.8-3.8 1.3-7.6 2.7-8.2 3.3-.7.5-1.3.6-1.3.2 0-.3-1.6.3-3.5 1.5s-3.5 1.8-3.5 1.4c0-.4-.8-.1-1.7.7-1 .8-3.6 2.4-5.8 3.4-2.2 1.1-4.1 2.3-4.3 2.7-.2.5-1 .8-1.8.8s-1.4.4-1.4 1c0 .5-.5 1-1 1-1.2 0-9.7 5.8-16.5 11.4-8.2 6.6-210.7 209.5-216.7 217.1-10.5 13.2-20.7 31.6-26.3 47.5-1.5 4.1-2.9 8.2-3.2 9-.8 2.1-1.1 3.1-1.7 6-.3 1.4-.8 3.6-1.1 5-.9 3.7-1.3 6.1-1.9 10.4-.4 2.1-.9 4.3-1.3 4.9-.4.6-.1.7.6.2 1-.6 1.1-.3.3 1.2-1.7 3.2-.6 38.9 1.4 44.3.3.8.8 3.3 1.1 5.5.3 2.2.9 4.8 1.4 5.7.6 1 .8 1.8.5 1.8-.2 0 .9 3.7 2.5 8.2 1.6 4.6 3.1 9.1 3.4 10 .6 2.5 11.2 23.5 12.5 24.8.3.3 1.8 2.5 3.4 5 6.8 10.5 19.2 23.4 114.3 118.5C406.5 992.3 419.4 1005 421 1005c.5 0 1 .4 1.2.8.2.5 2.6 2.3 5.3 4.2 2.8 1.8 5.2 3.6 5.5 3.9.6.7 1.6 1.3 12.1 6.9 10.9 5.9 27.8 12.4 37.9 14.6 14.9 3.3 20.7 3.9 36.5 4 12.2 0 21-.6 28-1.9 29-5.6 54.9-17.6 75.5-35 8.9-7.6 212.9-211.6 213.6-213.7.3-1 .9-1.8 1.3-1.8.5 0 2.1-1.9 3.7-4.2 1.6-2.4 3.1-4.5 3.4-4.8.3-.3 2.1-3 4.1-6 5.6-8.6 12.9-23.6 13.7-28.3.1-.4.9-2.1 1.7-3.7.9-1.7 1.3-3 1.1-3-.3 0 .2-1.7 1-3.7.9-2 1.7-4.4 1.9-5.2.2-.9 1.1-5 2-9.1 2.5-11.6 2.7-13.4 2.8-31 .2-15.4-.4-24.4-1.7-28-.3-.8-.8-3.3-1.1-5.5-1.2-9-11.1-37.4-14.5-42-.5-.6-2-3.3-3.5-6-3.9-6.9-12.4-19-18.2-25.4-5.2-5.9-204.5-205.3-208.4-208.6-15.6-13-30.4-21.9-47.9-28.8-6.5-2.6-23.5-7.8-24.8-7.6-.4.1-.9.1-1.2-.1-.3-.1-1.6-.3-3-.6-1.4-.2-3.8-.7-5.5-1-3.7-.7-36-1.6-36.6-1zm150.8 153.8c-.3.8-.6.5-.6-.6-.1-1.1.2-1.7.5-1.3.3.3.4 1.2.1 1.9zm0 3.3c0 .8-.4 1.5-.9 1.5-1 0-1.1-1.4-.1-2.3.9-1 1-.9 1 .8zm-1.1 7.2c-.8 8.2-1.7 13.1-4.2 22.6-1.3 5.1-2.6 10-2.9 11-.2.9-.7 2.2-1 2.7-.3.5-.8 2-1 3.2-.5 2.3-4.7 13.8-7.5 20.3-.9 2.2-2.8 6.7-4.1 10-1.3 3.3-2.8 6.3-3.4 6.7-.5.4-.6.8-.1.8s.2.7-.5 1.7c-.8.9-1.2 1.7-1 1.7.2.1-.7 2.6-2.1 5.6-2.2 4.8-3.7 8.3-4.3 10-.1.3-1.2 2.7-2.4 5.5-4.6 10-13.3 33.4-14.6 39.1-.2 1-1.2 4.6-2.1 7.9-2.8 10.5-5 24.2-5.5 35-.1 3.1 1.2 17.7 2.1 22.4 1.6 9.1 1.8 10 4 18.5 7.9 30.4 25.5 57.1 49.4 74.8 4.4 3.3 9.2 6.6 10.6 7.2 1.4.6 2.7 1.3 3 1.6 2.1 2.3 26.5 11.9 34 13.4 1.4.3 3.4.7 4.5.9 1.1.3 4.5.8 7.5 1.2 13.3 1.6 16.5 2.8 5.4 2-18.3-1.4-24.6-2.5-44.4-7.9-8.1-2.3-27.3-9.9-58-23-23.9-10.3-25.2-10.8-26.2-11.1-.5-.2-1-.4-1.3-.5-.3-.1-.8-.3-1.2-.4-.5-.1-1.2-.4-1.8-.8-3.3-2-31.6-10.2-39-11.3-2.3-.3-5.2-.8-6.5-1.1-3.4-.9-32.3-1.3-33.5-.6-.5.4-1.9.7-3 .8-1.1.1-3.3.4-5 .7-8.4 1.6-10.1 1.9-11.2 2-.7 0-1.3.3-1.3.7 0 .3-1.2.7-2.7.8-1.6.1-7.1 1.8-12.3 3.8-5.2 2-11 4.1-12.7 4.7-1.8.7-3.3 1.5-3.3 1.9 0 .5-.5.8-1.2.8-1.8 0-14.5 7.7-21.2 12.9-10.5 7.9-26 24.6-29.7 32-.8 1.4-1.7 2.8-2 3.1-1.2.9-8.6 16.5-10.7 22.5-3.6 10.1-5.7 18.7-6.9 27.8-.3 2.6-.9 4.7-1.4 4.7-.4 0-.6-1.5-.4-3.2.4-2.9 1.2-9.9 1.9-16.3.1-1.1.6-3.4.9-5 .4-1.7.9-3.9 1.2-5 .2-1.1 1.2-4.7 2.1-8 .9-3.3 1.7-6.5 1.9-7 .1-.6.4-1.7.7-2.5.3-.8 1.6-4.4 2.9-8 3.1-9.1 6.7-18 8.5-21.3.8-1.5 1.2-2.7.8-2.7-.3 0-.1-.6.5-1.3.6-.8.9-1.6.6-1.9-.3-.3.1-1.1 1-1.8.8-.7 1.5-1.9 1.5-2.6 0-.8.4-2.2.9-3.2.9-1.7 1.7-3.6 6-13.4 1.2-2.6 2.1-5.2 2.1-5.8 0-.5.4-1 1-1 .5 0 .9-.3.8-.8-.2-.9 1.2-4.7 5-13.3 2.5-5.6 11.2-31.5 11.7-34.9.3-1.4.9-4.3 1.5-6.5 2.3-9.2 3.3-17.7 3.5-30 .2-7.2 0-13.4-.3-14-.4-.5-.8-2.8-.9-5-.4-5.3-4.7-22.8-7.8-32.2-2.8-8.4-10.1-24-12.2-26.1-.7-.7-1.3-1.7-1.3-2.2 0-.5-.6-1.5-1.2-2.2-.7-.7-1.9-2.4-2.6-3.9-.7-1.4-2.7-3.9-4.3-5.7-1.7-1.8-2.8-3.2-2.6-3.2 1 0-12.2-12.9-17.5-17.2-5.5-4.4-20.4-14.3-21.7-14.3-.3-.1-1.5-.6-2.7-1.2-3.5-2-17.1-7.2-19.6-7.5-1.2-.2-2.7-.6-3.3-1-.9-.5-5.8-1.8-9.5-2.4-6.8-1.2-9.3-1.5-14.9-1.9-3.6-.3-6.7-.8-7-1.1-.9-.9 20.5.3 27.4 1.5 13.5 2.4 20.1 3.9 24.7 5.7 2 .7 4.7 1.5 6 1.8 1.3.2 7 2.2 12.8 4.4 12 4.6 15.7 6.1 28.3 11.6 20.7 9.1 28.8 12.5 38.1 16.1 14.5 5.5 20.9 7.9 22.1 8.1.6.1 5.2 1.4 10.3 2.7 5 1.4 9.2 2.4 9.2 2.2 0-.3 1-.1 2.3.4 7.7 2.9 38.7 3.3 48.7.6.8-.2 3.1-.7 5-1 9.1-1.5 26.9-7.4 37-12.2 8.7-4.2 26-15.1 26-16.4 0-.5.5-.9 1.1-.9 1.1 0 13.9-12.6 19-18.6 11.1-13.1 21.5-35.3 25.5-54.2 1-4.5 1.9-8.2 2.1-8.2.2 0 .2 2.1-.1 4.7zm-347.3 52c-.7.2-1.9.2-2.5 0-.7-.3-.2-.5 1.2-.5s1.9.2 1.3.5zM385 887.4c0 .3-.4.8-1 1.1-.5.3-1 .1-1-.4 0-.6.5-1.1 1-1.1.6 0 1 .2 1 .4zm-.5 3.5c.3.5.1 1.2-.5 1.6-.5.3-1-.1-1-.9 0-1.8.6-2.1 1.5-.7z"/></svg>