<svg width="1400" height="1400" viewBox="0 0 1400 1400" xmlns="http://www.w3.org/2000/svg" xml:space="preserve"><path d="M618.459 433.656C444.439 415.096 269.133 283.563 255.294 5.26c270.04 0 414.447 159.857 428.395 413.161 51.068-303.834 290.427-268.216 290.427-268.216C985.488 322.4 844.08 426.788 683.689 435.478c-45.06-94.949-314.993-327.868-314.993-327.868-.583-.494-1.471.144-1.181.858 0 .001 260.492 226.912 250.944 325.188m555.206 487.13a213.922 213.922 0 0 0-62.544-151.42L851.7 509.84a213.91 213.91 0 0 0-90.813-53.849c-17.806-5.658-37.42-8.813-58.763-8.903-.854-.05-1.57-.087-2.126-.119v.12a213.923 213.923 0 0 0-150.524 62.535l-259.525 259.42a213.814 213.814 0 0 0-48.924 76.062c-9.434 22.044-14.803 47.28-14.803 75.532a213.923 213.923 0 0 0 62.547 151.703l259.312 259.42a213.926 213.926 0 0 0 115.713 59.586c9.41 1.664 19.245 2.67 29.486 2.968 3.059.233 5.353.346 6.719.424l-.163-.322a213.936 213.936 0 0 0 151.545-62.545l259.526-259.314a213.915 213.915 0 0 0 57.58-105.36c3.22-13.725 5.009-28.414 5.156-44.033.058-.983.1-1.797.136-2.415l-.114.036zm-183.46 183.528c-107.281 7.725-186.462-77.029-290.53-77.029-130.86 9.674-187.61 102.787-182.622 192.81a287.71 287.71 0 0 1-.624-8.923c-7.725-107.287 77.032-186.357 77.032-290.533-9.79-132.386-105-188.927-196.014-182.425a284.21 284.21 0 0 1 13.199-1.032c107.285-7.725 186.463 77.03 290.532 77.03 122.2-9.188 179.776-90.992 182.8-175.053 2.785 102.945-77.444 180.545-77.444 281.91 9.653 130.583 102.395 187.371 192.24 182.653a292.64 292.64 0 0 1-8.568.592z"/></svg>