<svg xmlns="http://www.w3.org/2000/svg" xmlns:xlink="http://www.w3.org/1999/xlink" viewBox="0 0 88.34 130.66"><defs><style>.cls-1{fill:url(#New_Gradient_Swatch_3);}.cls-2{fill:url(#New_Gradient_Swatch_5);}.cls-3{fill:url(#New_Gradient_Swatch_5-2);}.cls-4{fill:url(#New_Gradient_Swatch_5-3);}.cls-5{fill:url(#New_Gradient_Swatch_5-4);}.cls-6{fill:url(#linear-gradient);}</style><radialGradient id="New_Gradient_Swatch_3" cx="44.36" cy="84.3" r="25.18" gradientTransform="translate(0 0.72) scale(1 1.02)" gradientUnits="userSpaceOnUse"><stop offset="0" stop-color="#fff"/><stop offset="0.08" stop-color="#99c"/><stop offset="0.27" stop-color="#4d4d59"/><stop offset="0.67" stop-color="#300"/><stop offset="1" stop-color="red"/></radialGradient><linearGradient id="New_Gradient_Swatch_5" x1="-249.81" y1="-104.86" x2="-249.81" y2="-161.68" gradientTransform="translate(-179.33 -57.26) rotate(180)" gradientUnits="userSpaceOnUse"><stop offset="0" stop-color="#ff0020"/><stop offset="0.15" stop-color="#fa001f"/><stop offset="0.33" stop-color="#eb001e"/><stop offset="0.52" stop-color="#d3001b"/><stop offset="0.72" stop-color="#b10018"/><stop offset="0.92" stop-color="#860013"/><stop offset="1" stop-color="#740011"/></linearGradient><linearGradient id="New_Gradient_Swatch_5-2" x1="5.6" y1="59.11" x2="62.74" y2="59.11" gradientTransform="matrix(1, 0, 0, 1, 0, 0)" xlink:href="#New_Gradient_Swatch_5"/><linearGradient id="New_Gradient_Swatch_5-3" x1="17.88" y1="124.81" x2="17.88" y2="67.73" gradientTransform="matrix(1, 0, 0, 1, 0, 0)" xlink:href="#New_Gradient_Swatch_5"/><linearGradient id="New_Gradient_Swatch_5-4" x1="-262.91" y1="-170.09" x2="-205.39" y2="-170.09" xlink:href="#New_Gradient_Swatch_5"/><linearGradient id="linear-gradient" x1="3.88" y1="20.04" x2="70.94" y2="20.04" gradientUnits="userSpaceOnUse"><stop offset="0" stop-color="#12b212"/><stop offset="1" stop-color="lime"/></linearGradient></defs><title>Asset 5</title><g id="Layer_2" data-name="Layer 2"><g id="Home_Logo" data-name="Home Logo"><rect class="cls-1" x="16.88" y="63.33" width="54.95" height="46" rx="12" ry="12"/><path class="cls-2" d="M58.3,47.62c-.55-.48,10.38,9.71-.3,25.16-4.76,6.89-6.6,13.7-4.57,19.82,2.43,7.37,9.77,11.58,15.83,11.79,15.81.56,26.26-17.68,13.12-32.1Z"/><path class="cls-3" d="M5.6,72.74a16.06,16.06,0,0,1,6.65-4c6.37-2.1,13-.28,18.69,2.93,6.68,3.79,14.61,7.44,22.1,3.62A18.13,18.13,0,0,0,62.74,60a18.49,18.49,0,0,0-6.94-14.8A18.2,18.2,0,0,0,39.75,42a23.32,23.32,0,0,0-10.4,6.44l-7.54,7.72L5.92,72.41Z"/><path class="cls-4" d="M30.77,124.72c.91,1.33-10.3-12-.43-25.36,5-6.74,6.6-13.7,4.57-19.82C32.48,72.17,25.15,68,19.09,67.74,3.27,67.18-7.18,85.42,6,99.84Z"/><path class="cls-5" d="M83.58,98.68s-9.68,10.87-25.72,1.62C50.6,96.12,44.16,93.7,38,95.73a18.14,18.14,0,0,0-12,15.89c-.56,15.81,17.86,26.21,32.27,13.06Z"/><path id="Leaf_Path" data-name="Leaf Path" class="cls-6" d="M37.72,39.93m0,0C21.5,38.2,5.17,25.94,3.88,0,29,0,42.5,14.9,43.8,38.51c4.76-28.32,27.07-25,27.07-25C71.94,29.55,58.75,39.28,43.8,40.09,39.6,31.25,14.44,9.54,14.44,9.54a.07.07,0,0,0-.11.08S38.61,30.77,37.72,39.93"/></g></g></svg>