<?xml version="1.0" encoding="utf-8"?>
<!-- Generator: Adobe Illustrator 22.1.0, SVG Export Plug-In . SVG Version: 6.00 Build 0)  -->
<svg version="1.1" id="Layer_1" xmlns="http://www.w3.org/2000/svg" xmlns:xlink="http://www.w3.org/1999/xlink" x="0px" y="0px"
	 viewBox="0 0 1000 1000" style="enable-background:new 0 0 1000 1000;" xml:space="preserve">
<style type="text/css">
	.st0{fill:#FFFFFF;}
</style>
<g>
	<g>
		<path class="st0" d="M970.3,706.7L112.7,926.4c-9.4,2.4-15.2-9.5-7.2-14.9l393.3-263.2c4.9-3.3,4.9-10.3,0-13.6L435,592
			c-4.9-3.3-4.9-10.3,0-13.6l179.6-120.2c3-2,7-2,10,0l79.1,53.1L900,642.9l73,49C979,695.9,977.4,704.9,970.3,706.7z"/>
	</g>
	<g>
		<path class="st0" d="M894.6,88.4L501.2,351.6c-4.9,3.3-5,10.3,0,13.6l63.7,42.8c5,3.3,5,10.3,0,13.7L385.3,541.8c-3,2-7,2-10,0
			l-79.1-53.1L100,357.1l-73-49c-6.1-4-4.4-13,2.7-14.8L887.3,73.6C896.8,71.2,902.6,83.1,894.6,88.4z"/>
	</g>
</g>
</svg>
