<svg viewBox="0 0 90 130" xmlns="http://www.w3.org/2000/svg"><defs><linearGradient y2="0" y1="0" x2=".8" x1="0" id="a"><stop stop-color="#22B225" offset="0"/><stop stop-color="#29FC2E" offset="1"/></linearGradient></defs><path fill="url(#a)" d="M37.4 40.145C21.18 38.415 4.84 26.155 3.55.215c25.17 0 38.63 14.9 39.93 38.51 4.76-28.32 27.07-25 27.07-25 1.06 16.05-12.12 25.78-27.07 26.59-4.2-8.85-29.36-30.56-29.36-30.56a.07.07 0 0 0-.11.08s24.28 21.15 23.39 30.31"/><path fill="#96060C" d="M45 129.726c-1.57-.09-16.22-.65-17.11-17.11-.72-10 7.18-17.37 7.18-27.08-1.79-24.21-34.23-21.21-34.23 0a19.94 19.94 0 0 0 5.83 14.14l24.17 24.18a19.94 19.94 0 0 0 14.14 5.83"/><path fill="#F60D1A" d="M89.16 85.546c-.09 1.57-.65 16.22-17.11 17.11-10 .72-17.38-7.18-27.08-7.18-24.21 1.79-21.21 34.22 0 34.22a19.94 19.94 0 0 0 14.14-5.83l24.19-24.17a19.94 19.94 0 0 0 5.83-14.14"/><path fill="#96060C" d="M45 41.386c1.57.09 16.22.65 17.11 17.11.72 10-7.18 17.37-7.18 27.08 1.79 24.21 34.22 21.21 34.22 0a19.94 19.94 0 0 0-5.83-14.14l-24.18-24.19A19.94 19.94 0 0 0 45 41.416"/><path fill="#F60D1A" d="M.92 85.546c.09-1.57.65-16.22 17.11-17.11 10-.72 17.38 7.18 27.08 7.18 24.21-1.82 21.21-34.22 0-34.22a19.94 19.94 0 0 0-14.14 5.83L6.78 71.406a19.94 19.94 0 0 0-5.83 14.14"/></svg>
